<!DOCTYPE svg PUBLIC "-//W3C//DTD SVG 1.1//EN" "http://www.w3.org/Graphics/SVG/1.1/DTD/svg11.dtd">
<!-- Uploaded to: SVG Repo, www.svgrepo.com, Transformed by: SVG Repo Mixer Tools -->
<svg fill="#fff" width="256px" height="256px" viewBox="-4.16 -4.16 40.32 40.32" xmlns="http://www.w3.org/2000/svg" stroke="#fff" stroke-width="2.2399999999999998">
<g id="SVGRepo_bgCarrier" stroke-width="0"/>
<g id="SVGRepo_tracerCarrier" stroke-linecap="round" stroke-linejoin="round"/>
<g id="SVGRepo_iconCarrier"> <path d="M12,25l6.67,6.67a1,1,0,0,0,.7.29.91.91,0,0,0,.39-.08,1,1,0,0,0,.61-.92V13.08L31.71,1.71A1,1,0,0,0,31.92.62,1,1,0,0,0,31,0H1A1,1,0,0,0,.08.62,1,1,0,0,0,.29,1.71L11.67,13.08V24.33A1,1,0,0,0,12,25ZM3.41,2H28.59l-10,10a1,1,0,0,0-.3.71V28.59l-4.66-4.67V12.67a1,1,0,0,0-.3-.71Z"/> </g>
</svg>